# xmcd
#
# Track frame offsets: 
#        150
#        13440
#        27743
#        42938
#        56251
#        69691
#        81166
#        96459
#        109697
#        123670
#        136555
#        150108
#        165378
#        179126
#        193031
#        205136
#        218044
#        230517
#        244602
#        256947
#        269997
#        284675
#        297380
#        311375
#        324005
#        337963
#        350676
#        363914
#        378899
#        391739
#
# Disc length: 5403 seconds
#
# Revision: 0
# Processed by: cddbd v1.5.2PL0 Copyright (c) Steve Scherf et al.
# Submitted via: ExactAudioCopyFreeDBPlugin 1.0
#
DISCID=c315191e
DTITLE=Alice Moore - Loving Heart Blues
DYEAR=2015
DGENRE=Blues
TTITLE0=Loving Heart Blues
TTITLE1=Unlucky Play Blues
TTITLE2=Black And Evil Blues
TTITLE3=Have Mercy Blues
TTITLE4=S.O.S. Blues
TTITLE5=Trouble Blues
TTITLE6=My Man Blues
TTITLE7=Midnight Creepers
TTITLE8=Don't Deny Me Baby
TTITLE9=Serving Time Blues
TTITLE10=Just a Good Girl Treated Wrong
TTITLE11=Blue, Black And Evil Blues
TTITLE12=Too Many Men
TTITLE13=Push Cart Pusher
TTITLE14=Lonesome Woman Blues
TTITLE15=Tired Of Me Blues
TTITLE16=Doggin' Man Blues
TTITLE17=Death Valley Blues
TTITLE18=Kid Man Blues
TTITLE19=Black Evil Blues
TTITLE20=Broadway St. Woman Blues
TTITLE21=Tomorrow Blues
TTITLE22=Just Sittin' Here Wondering
TTITLE23=Hand In Hand Women
TTITLE24=Daddy Calling Mama
TTITLE25=Riverside Blues
TTITLE26=New Blue, Black and Evil Blues
TTITLE27=Prison Blues
TTITLE28=Lonesome Dream Blues
TTITLE29=Cold Iron Walls
EXTD=
EXTT0=
EXTT1=
EXTT2=
EXTT3=
EXTT4=
EXTT5=
EXTT6=
EXTT7=
EXTT8=
EXTT9=
EXTT10=
EXTT11=
EXTT12=
EXTT13=
EXTT14=
EXTT15=
EXTT16=
EXTT17=
EXTT18=
EXTT19=
EXTT20=
EXTT21=
EXTT22=
EXTT23=
EXTT24=
EXTT25=
EXTT26=
EXTT27=
EXTT28=
EXTT29=
PLAYORDER=
